<?xml version="1.0" encoding="UTF-8" standalone="no"?>
<!DOCTYPE svg PUBLIC "-//W3C//DTD SVG 1.1//EN" "http://www.w3.org/Graphics/SVG/1.1/DTD/svg11.dtd">
<svg xmlns="http://www.w3.org/2000/svg" version="1.1" viewBox="0.00 0.00 155.00 171.00">
<path fill="#032471" d="
  M 76.82 16.29
  C 66.34 40.22 55.05 63.95 43.86 87.58
  C 43.29 88.79 43.05 89.86 42.71 91.18
  Q 42.61 91.59 42.69 92.01
  Q 43.42 95.44 41.13 97.39
  C 34.40 103.12 26.88 90.65 35.87 87.75
  Q 36.35 87.60 36.64 87.18
  Q 37.81 85.50 38.18 84.69
  Q 52.18 54.01 66.56 23.50
  C 68.89 18.55 71.26 13.50 73.67 7.70
  C 75.13 4.19 79.51 4.07 80.83 7.77
  C 83.10 14.15 86.39 19.58 87.84 22.93
  Q 90.79 29.69 92.90 33.65
  C 93.76 35.28 93.95 37.49 95.73 38.67
  C 98.16 40.28 100.98 42.86 99.08 46.13
  Q 96.74 50.17 92.08 48.88
  C 89.82 48.25 88.90 46.35 88.19 44.30
  A 1.11 1.08 -39.1 0 1 88.30 43.36
  C 88.95 42.32 89.18 41.76 88.63 40.55
  Q 83.09 28.39 77.47 16.28
  A 0.36 0.35 -45.6 0 0 76.82 16.29
  Z"
/>
<path fill="#032471" d="
  M 136.97 144.68
  Q 136.80 144.19 136.47 143.89
  A 1.17 1.14 -75.7 0 1 136.13 143.30
  Q 135.82 141.80 135.45 141.02
  C 127.08 123.50 119.20 105.74 110.77 88.26
  C 109.52 85.66 106.64 85.07 105.44 82.18
  C 102.89 76.00 114.44 71.00 116.28 79.72
  C 116.63 81.33 115.79 83.21 116.58 84.94
  Q 122.16 97.08 127.93 109.14
  Q 129.88 113.21 131.68 117.35
  C 136.63 128.73 142.10 139.88 147.16 151.21
  C 148.37 153.91 147.57 156.56 144.05 155.92
  C 136.17 154.50 129.85 148.40 121.50 149.02
  Q 118.02 149.28 117.33 145.74
  C 116.06 139.20 122.65 135.66 127.14 140.74
  Q 128.94 142.79 129.83 143.33
  Q 132.45 144.92 135.41 146.15
  A 1.17 1.17 0.0 0 0 136.97 144.68
  Z"
/>
<path fill="#032471" d="
  M 17.68 146.68
  Q 19.51 145.78 21.35 144.98
  Q 48.33 133.20 75.03 121.67
  A 3.03 3.03 0.0 0 1 77.29 121.62
  Q 80.24 122.74 83.42 123.83
  Q 84.67 124.26 87.16 124.30
  C 90.54 124.36 94.28 127.17 93.36 130.96
  C 92.56 134.27 89.28 136.14 86.06 134.98
  C 83.14 133.93 82.66 131.11 80.17 129.49
  Q 77.12 127.51 73.25 129.24
  Q 61.24 134.59 13.36 155.12
  Q 10.79 156.22 8.44 155.88
  A 1.13 1.11 77.6 0 1 7.64 155.36
  C 5.89 152.54 9.76 145.48 11.02 142.62
  C 12.17 140.01 11.42 136.78 12.76 134.71
  C 17.04 128.13 25.64 134.66 22.57 139.86
  C 21.01 142.50 17.21 142.37 17.19 146.37
  Q 17.18 146.92 17.68 146.68
  Z"
/>
</svg>
