<?xml version="1.0" encoding="UTF-8" standalone="no"?>
<!DOCTYPE svg PUBLIC "-//W3C//DTD SVG 1.1//EN" "http://www.w3.org/Graphics/SVG/1.1/DTD/svg11.dtd">
<svg xmlns="http://www.w3.org/2000/svg" version="1.1" viewBox="0.00 0.00 302.00 90.00">
<path fill="#012579" d="
  M 29.43 26.11
  C 30.24 24.87 30.74 23.25 31.44 21.76
  Q 35.71 12.60 40.10 3.01
  A 2.21 1.58 -4.6 0 1 41.25 2.04
  Q 41.84 1.83 42.48 2.22
  Q 42.91 2.48 43.20 3.10
  Q 47.19 11.70 51.16 20.30
  Q 51.40 20.84 52.80 21.62
  Q 53.18 21.84 53.40 22.23
  C 55.86 26.75 49.81 28.15 48.60 25.18
  C 48.07 23.89 48.89 22.43 48.45 21.50
  Q 45.36 14.97 42.42 8.50
  A 0.85 0.85 0.0 0 0 40.87 8.49
  Q 31.48 28.90 21.97 49.34
  C 21.18 51.04 21.86 52.48 21.08 53.88
  C 19.68 56.36 16.40 55.51 15.79 52.96
  A 2.58 2.58 0.0 0 1 17.79 49.83
  Q 18.08 49.77 18.53 49.39
  Q 18.83 49.13 19.03 48.70
  Q 23.55 38.67 28.04 28.65
  Q 28.63 27.32 29.43 26.11
  Z"
/>
<path fill="#f0ae16" d="
  M 207.99 32.45
  L 207.51 32.49
  Q 206.99 32.53 206.79 33.02
  L 202.17 44.72
  A 0.62 0.61 10.8 0 0 202.75 45.56
  L 206.49 45.53
  Q 207.80 45.53 208.27 46.75
  L 209.49 49.94
  A 1.01 1.01 0.0 0 1 208.54 51.32
  L 200.32 51.29
  A 1.22 1.21 -79.3 0 0 199.17 52.08
  L 197.32 57.01
  Q 197.04 57.76 196.24 57.76
  L 191.73 57.77
  A 0.59 0.58 -79.1 0 1 191.19 56.96
  Q 195.55 46.03 199.77 35.33
  Q 201.12 31.92 202.64 28.59
  C 205.08 23.24 210.07 23.70 212.20 28.92
  Q 217.92 42.92 223.73 57.39
  A 0.26 0.26 0.0 0 1 223.49 57.74
  L 218.25 57.76
  A 0.47 0.47 0.0 0 1 217.80 57.46
  L 208.42 34.07
  Q 208.23 33.60 208.25 33.09
  Q 208.26 32.90 208.26 32.71
  A 0.25 0.25 0.0 0 0 207.99 32.45
  Z"
/>
<path fill="#f0ae16" d="
  M 112.77 34.82
  Q 112.82 35.28 112.53 36.02
  Q 109.39 43.88 106.02 51.67
  Q 104.88 54.30 101.49 54.12
  C 98.93 53.99 98.06 53.23 97.08 50.81
  Q 94.28 43.85 91.43 36.92
  Q 91.25 36.47 91.27 35.98
  Q 91.27 35.81 91.29 35.63
  A 0.27 0.26 -82.1 0 0 91.09 35.36
  L 89.59 34.99
  A 0.45 0.45 0.0 0 0 89.03 35.43
  L 88.99 56.76
  Q 88.99 57.77 87.99 57.77
  L 84.67 57.76
  Q 83.64 57.76 83.64 56.72
  Q 83.60 43.62 83.65 30.25
  Q 83.66 27.64 84.59 26.01
  A 1.16 1.15 10.8 0 1 85.43 25.44
  Q 88.21 25.09 90.92 25.29
  C 93.19 25.46 93.34 26.60 94.08 28.40
  Q 97.63 37.00 100.96 45.67
  Q 101.14 46.12 101.61 46.00
  L 102.35 45.82
  Q 102.76 45.71 102.92 45.32
  L 110.39 26.61
  A 2.16 2.15 10.9 0 1 112.39 25.26
  L 117.75 25.29
  A 2.22 2.22 0.0 0 1 119.96 27.50
  L 120.05 56.73
  A 1.03 1.03 0.0 0 1 119.02 57.77
  L 115.68 57.76
  Q 114.61 57.75 114.62 56.68
  L 114.65 34.52
  Q 114.65 34.14 114.27 34.17
  L 113.21 34.27
  Q 112.71 34.32 112.77 34.82
  Z"
/>
<path fill="#f0ae16" d="
  M 154.67 49.14
  A 8.62 8.62 0.0 0 1 146.05 57.76
  L 134.31 57.76
  A 8.62 8.62 0.0 0 1 125.69 49.14
  L 125.69 33.90
  A 8.62 8.62 0.0 0 1 134.31 25.28
  L 146.05 25.28
  A 8.62 8.62 0.0 0 1 154.67 33.90
  L 154.67 49.14
  Z
  M 149.24 34.57
  A 3.82 3.82 0.0 0 0 145.42 30.75
  L 135.07 30.75
  A 3.82 3.82 0.0 0 0 131.25 34.57
  L 131.25 48.44
  A 3.82 3.82 0.0 0 0 135.07 52.26
  L 145.42 52.27
  A 3.82 3.82 0.0 0 0 149.24 48.45
  L 149.24 34.57
  Z"
/>
<path fill="#f0ae16" d="
  M 167.54 30.75
  Q 166.09 30.75 166.08 32.21
  L 166.03 37.04
  A 1.47 1.47 0.0 0 0 167.53 38.52
  C 173.83 38.40 181.15 37.76 183.43 39.94
  C 186.65 43.00 185.95 51.64 184.57 55.02
  Q 183.43 57.82 179.75 57.81
  Q 170.23 57.77 161.26 57.76
  Q 160.46 57.76 160.46 56.96
  L 160.46 53.02
  Q 160.47 52.27 161.23 52.27
  L 177.86 52.26
  Q 180.23 52.26 180.24 49.89
  L 180.24 46.30
  Q 180.24 43.99 177.93 44.06
  Q 171.75 44.24 165.54 43.81
  C 162.32 43.59 161.24 41.91 160.74 39.01
  C 160.10 35.28 159.66 27.73 163.83 25.83
  Q 165.11 25.25 168.72 25.25
  Q 176.50 25.25 183.80 25.25
  Q 184.75 25.25 184.75 26.19
  L 184.75 29.75
  Q 184.75 30.75 183.75 30.75
  L 167.54 30.75
  Z"
/>
<rect fill="#f0ae16" x="229.24" y="25.26" width="5.44" height="32.50" rx="0.57"/>
<path fill="#f0ae16" d="
  M 246.50 50.40
  A 2.74 2.60 80.2 0 0 249.00 52.26
  L 264.77 52.27
  A 0.76 0.75 0.0 0 1 265.53 53.02
  L 265.54 56.99
  Q 265.54 57.76 264.78 57.76
  Q 258.20 57.78 251.19 57.75
  C 245.20 57.72 241.43 56.33 240.81 49.98
  Q 239.82 39.77 240.68 32.99
  C 241.70 25.01 247.56 25.29 254.67 25.25
  Q 259.78 25.22 264.61 25.27
  Q 265.55 25.28 265.54 26.21
  L 265.53 29.99
  Q 265.52 30.74 264.76 30.74
  L 249.48 30.75
  A 3.41 3.40 0.6 0 0 246.08 34.07
  Q 245.89 41.38 246.21 48.24
  Q 246.28 49.75 246.50 50.40
  Z"
/>
<path fill="#f0ae16" d="
  M 300.18 49.19
  A 8.57 8.57 0.0 0 1 291.61 57.76
  L 279.85 57.76
  A 8.57 8.57 0.0 0 1 271.28 49.19
  L 271.28 33.85
  A 8.57 8.57 0.0 0 1 279.85 25.28
  L 291.61 25.28
  A 8.57 8.57 0.0 0 1 300.18 33.85
  L 300.18 49.19
  Z
  M 294.61 34.45
  A 3.70 3.70 0.0 0 0 290.91 30.75
  L 280.41 30.75
  A 3.70 3.70 0.0 0 0 276.71 34.45
  L 276.71 48.57
  A 3.70 3.70 0.0 0 0 280.41 52.27
  L 290.91 52.27
  A 3.70 3.70 0.0 0 0 294.61 48.57
  L 294.61 34.45
  Z"
/>
<path fill="#012579" d="
  M 74.15 85.91
  L 70.03 84.28
  A 0.86 0.83 -37.5 0 0 69.57 84.23
  C 67.47 84.63 65.71 84.81 64.94 82.33
  C 64.24 80.09 66.53 78.48 68.61 78.77
  Q 69.18 78.85 69.45 79.36
  Q 69.96 80.29 70.73 81.04
  Q 71.03 81.33 71.41 81.51
  L 76.25 83.72
  A 0.35 0.35 0.0 0 0 76.74 83.36
  Q 76.65 82.59 76.26 81.74
  Q 68.57 65.16 60.94 48.55
  Q 60.65 47.91 59.60 47.55
  Q 59.16 47.39 58.90 47.00
  C 56.29 43.08 61.81 40.42 63.64 44.13
  Q 63.85 44.55 63.77 45.02
  Q 63.44 46.96 63.80 47.73
  Q 72.89 67.13 81.71 86.41
  A 1.33 1.33 0.0 0 1 79.89 88.15
  Q 78.73 87.57 77.45 87.45
  Q 76.94 87.40 76.63 87.00
  Q 76.13 86.38 75.29 86.47
  Q 74.90 86.52 74.73 86.41
  Q 74.59 86.33 74.50 86.19
  Q 74.37 85.99 74.15 85.91
  Z"
/>
<path fill="#012579" d="
  M 8.88 80.70
  Q 8.84 82.75 11.73 81.51
  Q 26.26 75.26 40.81 69.00
  Q 41.27 68.81 41.73 69.00
  C 44.34 70.11 45.07 70.60 48.04 70.69
  C 52.25 70.81 50.74 77.95 46.44 76.04
  Q 45.21 75.49 45.22 74.27
  Q 45.22 73.77 44.74 73.64
  C 43.72 73.36 43.46 72.68 42.53 72.47
  Q 41.01 72.13 39.34 72.85
  Q 26.63 78.39 13.90 83.88
  Q 13.82 83.91 13.21 84.29
  Q 12.78 84.55 12.23 84.49
  Q 11.68 84.43 11.42 84.93
  Q 11.09 85.56 10.37 85.47
  Q 9.84 85.40 9.44 85.74
  Q 8.40 86.62 7.02 86.63
  A 0.53 0.52 8.9 0 0 6.54 86.97
  Q 6.48 87.13 6.42 87.29
  Q 6.33 87.54 6.07 87.51
  Q 4.68 87.39 3.53 88.21
  A 0.75 0.75 0.0 0 1 2.52 88.09
  Q 2.27 87.79 1.94 87.61
  Q 1.39 87.30 1.60 86.70
  Q 2.59 83.89 3.93 81.26
  C 4.88 79.39 3.87 77.59 5.03 76.19
  Q 6.59 74.29 8.47 75.30
  C 10.41 76.34 10.44 78.61 9.09 80.15
  A 0.85 0.82 -25.3 0 0 8.88 80.70
  Z"
/>
<path fill="#012579" d="
  M 98.26 77.03
  L 99.26 76.99
  Q 100.07 76.96 100.02 77.76
  L 99.93 79.21
  Q 99.89 79.88 99.24 79.71
  Q 98.34 79.47 97.42 79.55
  Q 96.89 79.60 96.66 80.08
  L 96.06 81.37
  Q 95.81 81.91 95.22 81.94
  L 94.74 81.96
  Q 93.86 82.01 94.19 81.18
  Q 96.13 76.34 98.28 71.53
  Q 99.14 69.61 100.76 71.22
  A 2.41 2.34 12.2 0 1 101.28 72.00
  L 105.06 81.29
  Q 105.27 81.81 104.71 81.88
  L 103.97 81.97
  Q 103.38 82.04 103.16 81.48
  L 101.95 78.39
  A 0.74 0.72 -89.2 0 0 101.58 78.00
  Q 100.94 77.69 101.00 76.98
  Q 101.05 76.42 100.59 76.11
  Q 99.75 75.53 100.02 74.46
  Q 100.13 74.05 99.70 74.04
  L 99.31 74.02
  Q 99.10 74.01 99.09 74.22
  Q 99.01 75.64 98.06 76.54
  Q 97.52 77.06 98.26 77.03
  Z"
/>
<path fill="#012579" d="
  M 127.97 76.52
  L 128.08 71.05
  Q 128.09 70.44 128.70 70.49
  L 129.08 70.51
  Q 129.77 70.56 129.77 71.26
  L 129.76 80.80
  Q 129.76 81.37 129.25 81.63
  C 128.07 82.24 126.98 82.02 126.26 80.79
  Q 124.51 77.79 123.26 75.52
  Q 121.51 72.38 121.52 75.97
  L 121.52 81.51
  A 0.39 0.39 0.0 0 1 121.13 81.90
  L 120.36 81.88
  Q 119.75 81.86 119.75 81.25
  L 119.75 71.79
  A 1.09 1.09 0.0 0 1 120.39 70.80
  Q 122.23 69.97 123.17 71.55
  Q 124.62 74.00 125.92 76.51
  A 0.92 0.90 -13.3 0 0 126.73 77.00
  L 127.48 77.00
  Q 127.96 77.00 127.97 76.52
  Z"
/>
<path fill="#012579" d="
  M 148.26 77.03
  L 149.26 76.99
  Q 150.07 76.96 150.02 77.77
  L 149.94 79.20
  Q 149.90 79.88 149.24 79.71
  Q 148.33 79.46 147.40 79.56
  Q 146.88 79.61 146.66 80.09
  L 146.06 81.38
  Q 145.81 81.92 145.21 81.94
  L 144.73 81.95
  Q 143.84 81.98 144.19 81.15
  Q 145.94 76.94 147.30 73.15
  Q 147.86 71.58 148.81 70.81
  A 1.41 1.40 59.3 0 1 151.00 71.37
  L 155.13 81.44
  A 0.32 0.31 -14.6 0 1 154.87 81.87
  L 153.96 81.97
  Q 153.37 82.03 153.15 81.48
  L 152.08 78.72
  Q 151.89 78.24 151.47 77.96
  Q 150.93 77.59 150.98 76.89
  Q 151.02 76.40 150.61 76.12
  Q 149.74 75.54 150.02 74.47
  Q 150.13 74.06 149.71 74.04
  L 149.31 74.01
  Q 149.10 74.00 149.09 74.21
  Q 149.02 75.64 148.06 76.54
  Q 147.52 77.05 148.26 77.03
  Z"
/>
<path fill="#012579" d="
  M 172.70 80.17
  L 177.31 80.13
  Q 178.00 80.13 177.98 80.81
  L 177.97 81.30
  Q 177.95 81.86 177.40 81.88
  C 174.72 81.99 170.07 82.75 169.87 78.75
  Q 169.67 74.89 169.76 71.39
  Q 169.78 70.61 170.57 70.56
  L 171.01 70.53
  A 0.48 0.48 0.0 0 1 171.52 71.01
  L 171.59 79.07
  A 1.11 1.10 89.5 0 0 172.70 80.17
  Z"
/>
<path fill="#012579" d="
  M 198.02 75.58
  L 200.37 71.24
  A 1.33 1.31 -74.1 0 1 201.59 70.55
  L 201.98 70.57
  Q 202.76 70.61 202.37 71.29
  C 200.66 74.23 197.94 77.59 198.31 81.17
  Q 198.37 81.76 197.78 81.82
  L 197.04 81.91
  A 0.53 0.52 -1.0 0 1 196.46 81.36
  C 196.55 79.93 196.71 78.71 195.92 77.36
  Q 194.12 74.25 192.46 71.23
  Q 191.93 70.28 193.01 70.48
  L 193.53 70.58
  Q 194.20 70.71 194.52 71.31
  L 196.85 75.58
  A 0.67 0.67 0.0 0 0 198.02 75.58
  Z"
/>
<path fill="#012579" d="
  M 222.78 72.79
  L 222.79 81.66
  A 0.34 0.34 0.0 0 1 222.44 82.00
  L 221.37 81.96
  A 0.34 0.34 0.0 0 1 221.04 81.62
  L 220.97 72.79
  A 0.34 0.34 0.0 0 0 220.63 72.45
  L 217.36 72.48
  A 0.34 0.34 0.0 0 1 217.02 72.11
  L 217.11 70.91
  A 0.34 0.34 0.0 0 1 217.45 70.60
  L 226.43 70.63
  A 0.34 0.34 0.0 0 1 226.77 70.97
  L 226.78 72.12
  A 0.34 0.34 0.0 0 1 226.44 72.46
  L 223.12 72.45
  A 0.34 0.34 0.0 0 0 222.78 72.79
  Z"
/>
<rect fill="#012579" x="-0.89" y="-5.75" transform="translate(242.14,76.24) rotate(-0.1)" width="1.78" height="11.50" rx="0.81"/>
<path fill="#012579" d="
  M 260.71 80.19
  L 265.55 80.12
  Q 265.98 80.12 265.97 80.55
  L 265.97 81.30
  A 0.58 0.58 0.0 0 1 265.40 81.87
  C 262.43 81.93 257.81 82.98 257.35 78.75
  C 256.45 70.46 258.27 70.67 265.30 70.59
  A 0.58 0.58 0.0 0 1 265.88 71.20
  L 265.84 71.95
  Q 265.81 72.46 265.30 72.46
  L 260.79 72.45
  Q 259.01 72.44 259.03 74.22
  L 259.07 78.58
  Q 259.08 80.21 260.71 80.19
  Z"
/>
<path fill="#012579" d="
  M 286.40 77.09
  L 282.72 77.00
  Q 280.25 76.94 280.25 74.47
  L 280.26 73.05
  Q 280.26 70.62 282.70 70.62
  L 287.98 70.62
  Q 288.59 70.62 288.64 71.23
  L 288.69 71.72
  A 0.67 0.66 87.6 0 1 288.03 72.45
  L 282.92 72.45
  Q 282.04 72.45 282.06 73.33
  L 282.07 74.42
  Q 282.08 75.26 282.92 75.25
  L 286.70 75.25
  A 2.18 2.18 0.0 0 1 288.88 77.45
  L 288.86 79.76
  A 2.12 2.12 0.0 0 1 286.74 81.86
  L 280.74 81.87
  A 0.66 0.65 -0.0 0 1 280.08 81.22
  L 280.08 80.78
  A 0.64 0.63 -0.4 0 1 280.72 80.14
  L 286.50 80.17
  Q 287.17 80.18 287.18 79.50
  L 287.18 77.89
  Q 287.18 77.11 286.40 77.09
  Z"
/>
</svg>
