<?xml version="1.0" encoding="UTF-8" standalone="no"?>
<!DOCTYPE svg PUBLIC "-//W3C//DTD SVG 1.1//EN" "http://www.w3.org/Graphics/SVG/1.1/DTD/svg11.dtd">
<svg xmlns="http://www.w3.org/2000/svg" version="1.1" viewBox="0.00 0.00 145.00 151.00">
<path fill="#f0ae16" d="
  M 71.32 14.02
  A 0.45 0.45 0.0 0 0 70.50 14.02
  Q 55.18 47.24 40.01 80.25
  Q 39.26 81.89 39.81 83.14
  Q 40.02 83.60 39.90 84.10
  C 38.97 88.08 33.36 90.43 31.13 86.25
  C 29.52 83.23 30.85 79.96 34.20 79.00
  Q 34.70 78.86 34.99 78.44
  Q 35.49 77.70 36.04 76.51
  Q 52.25 41.25 68.49 6.01
  C 69.65 3.51 72.73 4.30 73.69 6.43
  Q 79.85 20.10 86.05 33.75
  Q 86.26 34.22 86.69 34.48
  C 87.51 34.97 88.44 35.22 89.07 35.90
  C 91.63 38.64 90.63 43.15 86.61 43.90
  C 82.54 44.66 80.36 40.62 81.51 37.02
  Q 81.67 36.52 81.45 36.05
  L 71.32 14.02
  Z"
/>
<path fill="#f0ae16" d="
  M 117.69 129.18
  L 124.12 131.87
  Q 125.87 132.60 125.08 130.89
  Q 112.75 104.01 100.60 77.64
  C 100.18 76.72 98.29 76.35 97.50 75.42
  C 95.45 72.99 96.12 69.89 98.62 68.15
  C 102.10 65.73 106.87 69.67 105.31 73.93
  Q 104.99 74.80 105.31 75.50
  Q 119.17 105.62 133.03 135.74
  Q 133.89 137.60 133.14 138.90
  C 131.95 140.94 129.40 139.75 127.69 139.05
  Q 121.09 136.35 114.58 133.45
  A 1.09 1.09 0.0 0 0 113.65 133.47
  C 108.78 135.98 105.00 130.50 107.62 126.35
  C 109.35 123.61 114.31 124.29 115.55 127.08
  Q 116.21 128.55 117.69 129.18
  Z"
/>
<path fill="#f0ae16" d="
  M 16.52 131.60
  Q 16.39 132.35 17.09 132.04
  L 69.17 109.42
  A 2.63 2.61 44.5 0 1 71.24 109.41
  Q 74.38 110.74 77.74 112.25
  Q 78.42 112.56 79.61 111.96
  Q 80.04 111.75 80.51 111.81
  C 86.82 112.52 86.35 121.29 80.38 121.31
  C 77.15 121.31 76.92 119.35 75.47 117.12
  Q 75.20 116.71 74.74 116.54
  C 72.78 115.81 71.03 114.43 68.81 115.39
  Q 40.62 127.50 12.44 139.66
  Q 10.77 140.38 9.44 139.78
  A 2.24 2.24 0.0 0 1 8.31 136.86
  Q 10.27 132.30 12.42 127.87
  C 13.59 125.46 12.24 124.11 12.93 122.19
  C 15.56 114.95 25.62 120.30 20.87 126.71
  Q 20.57 127.12 20.08 127.29
  Q 17.10 128.35 16.52 131.60
  Z"
/>
</svg>
