<?xml version="1.0" encoding="UTF-8" standalone="no"?>
<!DOCTYPE svg PUBLIC "-//W3C//DTD SVG 1.1//EN" "http://www.w3.org/Graphics/SVG/1.1/DTD/svg11.dtd">
<svg xmlns="http://www.w3.org/2000/svg" version="1.1" viewBox="0.00 0.00 304.00 88.00">
<path fill="#f6b011" d="
  M 42.08 7.23
  A 0.50 0.50 0.0 0 0 41.17 7.23
  L 21.64 49.46
  A 1.77 1.73 54.7 0 0 21.49 50.41
  C 22.09 55.55 15.79 55.81 15.59 51.23
  Q 15.51 49.30 18.02 48.57
  A 1.04 1.03 4.4 0 0 18.68 48.01
  Q 29.18 25.24 39.62 2.47
  Q 40.42 0.72 41.98 0.91
  A 1.58 1.57 -9.1 0 1 43.23 1.81
  L 51.21 19.04
  Q 51.47 19.59 51.98 19.93
  C 54.67 21.71 55.36 25.14 51.42 25.93
  A 2.34 2.33 -29.6 0 1 49.40 25.38
  Q 47.69 23.87 48.40 21.79
  Q 48.59 21.25 48.35 20.74
  L 42.08 7.23
  Z"
/>
<path fill="#ffffff" d="
  M 207.49 31.51
  Q 207.36 31.51 207.23 31.51
  Q 207.04 31.51 206.97 31.68
  L 202.20 43.87
  A 0.49 0.48 10.6 0 0 202.66 44.53
  L 206.46 44.49
  Q 207.87 44.47 208.37 45.80
  L 209.56 48.93
  A 1.07 1.07 0.0 0 1 208.56 50.37
  L 200.04 50.38
  A 0.71 0.70 10.1 0 0 199.38 50.83
  L 197.44 55.87
  Q 197.08 56.81 196.08 56.81
  L 191.80 56.80
  Q 190.75 56.80 191.14 55.83
  Q 196.99 41.19 202.60 27.17
  Q 203.99 23.70 207.49 23.74
  C 210.16 23.77 211.35 25.60 212.34 28.05
  Q 217.94 41.78 223.62 55.90
  Q 224.01 56.88 222.96 56.86
  L 218.71 56.80
  Q 217.82 56.79 217.49 55.96
  L 207.81 31.74
  Q 207.72 31.53 207.49 31.51
  Z"
/>
<path fill="#ffffff" d="
  M 114.34 32.66
  C 112.69 33.30 112.85 34.58 112.35 35.83
  Q 109.32 43.30 106.31 50.76
  C 105.08 53.81 101.00 53.66 98.59 52.43
  Q 97.80 52.03 97.03 50.17
  Q 93.38 41.42 90.26 32.46
  Q 90.10 32.01 89.62 32.00
  Q 89.39 32.00 89.15 32.00
  Q 88.63 32.01 88.63 32.52
  L 88.61 56.00
  Q 88.61 56.86 87.75 56.84
  L 84.47 56.77
  Q 83.54 56.75 83.54 55.83
  Q 83.50 42.72 83.51 29.75
  C 83.52 23.32 86.37 23.98 91.31 24.25
  A 2.61 2.60 80.5 0 1 93.61 25.90
  L 100.63 43.49
  Q 101.88 46.63 103.14 43.49
  L 110.19 25.97
  A 2.80 2.77 -78.8 0 1 112.78 24.22
  L 117.71 24.25
  A 2.08 2.07 87.7 0 1 119.76 26.15
  C 120.57 35.75 120.14 45.76 120.09 55.64
  Q 120.08 56.86 118.86 56.84
  L 115.91 56.80
  Q 114.55 56.78 114.55 55.41
  L 114.61 32.84
  A 0.20 0.19 -11.1 0 0 114.34 32.66
  Z"
/>
<path fill="#ffffff" d="
  M 154.7333 48.1446
  A 8.68 8.68 0.0 0 1 146.0684 56.8397
  L 134.3285 56.8602
  A 8.68 8.68 0.0 0 1 125.6333 48.1954
  L 125.6067 32.9554
  A 8.68 8.68 0.0 0 1 134.2716 24.2603
  L 146.0115 24.2398
  A 8.68 8.68 0.0 0 1 154.7067 32.9046
  L 154.7333 48.1446
  Z
  M 149.1381 33.6944
  A 3.93 3.93 0.0 0 0 145.2013 29.7713
  L 135.1813 29.7888
  A 3.93 3.93 0.0 0 0 131.2581 33.7256
  L 131.2819 47.3256
  A 3.93 3.93 0.0 0 0 135.2187 51.2487
  L 145.2387 51.2312
  A 3.93 3.93 0.0 0 0 149.1619 47.2944
  L 149.1381 33.6944
  Z"
/>
<path fill="#ffffff" d="
  M 167.68 29.77
  Q 166.13 29.77 166.11 31.32
  L 166.07 35.94
  Q 166.05 37.49 167.59 37.47
  Q 173.00 37.43 178.73 37.49
  C 182.18 37.53 184.23 38.46 185.07 41.84
  C 186.31 46.86 187.14 56.62 179.34 56.78
  Q 169.99 56.97 161.13 56.77
  Q 160.39 56.75 160.39 56.01
  L 160.37 52.19
  Q 160.36 51.24 161.31 51.24
  L 177.81 51.24
  Q 180.11 51.24 180.15 48.94
  L 180.20 45.42
  Q 180.23 43.07 177.88 43.11
  Q 171.97 43.23 166.00 43.03
  Q 161.52 42.89 160.74 38.49
  C 159.88 33.70 159.20 24.29 166.53 24.25
  Q 175.38 24.20 184.02 24.24
  Q 184.77 24.25 184.77 24.99
  L 184.77 29.00
  Q 184.77 29.77 184.00 29.77
  L 167.68 29.77
  Z"
/>
<rect fill="#ffffff" x="229.20" y="24.24" width="5.54" height="32.56" rx="0.70"/>
<path fill="#ffffff" d="
  M 246.60 31.75
  C 245.16 35.06 246.00 43.66 246.12 47.95
  A 3.38 3.38 0.0 0 0 249.49 51.24
  L 264.79 51.24
  A 0.81 0.80 -0.0 0 1 265.60 52.04
  L 265.63 55.80
  Q 265.64 56.80 264.64 56.81
  Q 257.70 56.89 250.00 56.99
  Q 244.25 57.06 241.93 53.05
  C 239.57 48.96 240.13 39.54 240.36 34.37
  C 240.61 28.68 243.34 23.90 249.76 24.03
  Q 257.50 24.20 264.61 24.23
  Q 265.61 24.24 265.62 25.24
  L 265.63 28.63
  A 1.13 1.13 0.0 0 1 264.50 29.77
  L 249.25 29.78
  A 3.26 2.69 -76.2 0 0 246.60 31.75
  Z"
/>
<path fill="#ffffff" d="
  M 300.2235 48.2847
  A 8.53 8.53 0.0 0 1 291.7084 56.8296
  L 279.7885 56.8504
  A 8.53 8.53 0.0 0 1 271.2436 48.3353
  L 271.2165 32.7953
  A 8.53 8.53 0.0 0 1 279.7316 24.2504
  L 291.6515 24.2296
  A 8.53 8.53 0.0 0 1 300.1964 32.7447
  L 300.2235 48.2847
  Z
  M 294.53 33.55
  A 3.76 3.76 0.0 0 0 290.77 29.79
  L 280.53 29.79
  A 3.76 3.76 0.0 0 0 276.77 33.55
  L 276.77 47.49
  A 3.76 3.76 0.0 0 0 280.53 51.25
  L 290.77 51.25
  A 3.76 3.76 0.0 0 0 294.53 47.49
  L 294.53 33.55
  Z"
/>
<path fill="#f6b011" d="
  M 75.44 82.05
  Q 76.95 82.64 76.27 81.17
  L 60.82 47.73
  Q 60.60 47.25 60.12 47.02
  C 54.17 44.22 61.99 37.56 63.95 43.54
  Q 64.10 43.99 63.97 44.45
  Q 63.59 45.88 64.00 46.76
  Q 72.91 65.89 81.81 85.26
  A 1.39 1.36 -44.5 0 1 81.79 86.44
  Q 81.23 87.56 79.73 87.28
  Q 77.35 86.84 70.21 83.38
  Q 69.74 83.15 69.25 83.34
  C 63.57 85.55 63.12 76.08 68.89 77.86
  Q 69.38 78.01 69.66 78.43
  C 71.27 80.79 73.08 81.12 75.44 82.05
  Z"
/>
<path fill="#f6b011" d="
  M 7.01 81.50
  L 7.04 81.87
  Q 7.09 82.40 7.58 82.19
  L 40.72 67.87
  A 1.33 1.33 0.0 0 1 41.76 67.87
  L 45.92 69.63
  Q 46.35 69.81 46.80 69.69
  Q 50.37 68.75 50.75 72.24
  C 51.04 74.91 47.02 76.96 45.38 74.26
  Q 44.48 72.77 44.13 72.52
  C 42.53 71.34 41.29 71.21 39.36 72.05
  Q 22.68 79.30 5.98 86.46
  Q 4.30 87.17 2.47 87.29
  A 0.84 0.83 82.3 0 1 1.61 86.63
  C 1.20 84.72 3.45 80.81 4.31 79.03
  Q 4.54 78.57 4.42 78.07
  C 3.23 72.70 11.18 72.31 10.08 77.94
  Q 9.98 78.42 9.60 78.73
  L 7.49 80.38
  A 1.29 1.29 0.0 0 0 7.01 81.50
  Z"
/>
<path fill="#f6b011" d="
  M 99.23 72.86
  L 97.94 76.00
  A 0.47 0.47 0.0 0 0 98.42 76.65
  Q 100.27 76.47 100.14 78.37
  Q 100.11 78.77 99.70 78.77
  L 97.64 78.76
  Q 97.09 78.75 96.82 79.23
  L 96.09 80.54
  A 0.92 0.91 -74.5 0 1 95.28 81.00
  L 94.49 80.99
  Q 93.68 80.98 93.99 80.23
  L 98.03 70.31
  A 1.68 1.58 23.3 0 1 100.24 69.51
  Q 100.84 69.79 101.32 70.90
  Q 103.37 75.66 105.18 80.21
  Q 105.47 80.94 104.68 80.97
  L 104.05 81.00
  A 1.12 1.12 0.0 0 1 102.97 80.31
  L 99.98 72.86
  Q 99.61 71.93 99.23 72.86
  Z"
/>
<path fill="#f6b011" d="
  M 149.24 72.79
  L 147.95 76.00
  A 0.47 0.46 -81.4 0 0 148.42 76.64
  Q 150.28 76.46 150.14 78.40
  Q 150.09 78.97 149.55 78.80
  Q 147.11 78.07 146.15 80.39
  Q 145.89 81.00 145.22 81.00
  L 144.75 81.00
  Q 143.67 80.99 144.08 80.00
  L 148.03 70.31
  A 1.67 1.58 23.4 0 1 150.23 69.51
  Q 150.84 69.79 151.32 70.90
  Q 153.37 75.65 155.18 80.23
  Q 155.46 80.94 154.70 80.97
  L 154.05 81.00
  A 1.11 1.10 -12.0 0 1 152.98 80.31
  L 149.95 72.79
  Q 149.60 71.90 149.24 72.79
  Z"
/>
<path fill="#f6b011" d="
  M 197.70 74.94
  L 200.15 70.31
  A 1.61 1.60 -76.0 0 1 201.54 69.47
  L 201.97 69.46
  A 0.58 0.58 0.0 0 1 202.48 70.33
  C 200.71 73.45 198.26 76.36 198.46 80.19
  Q 198.51 80.97 197.72 80.98
  L 197.04 80.99
  Q 196.23 81.00 196.27 80.19
  C 196.45 76.27 194.08 73.49 192.32 70.25
  Q 191.78 69.25 192.91 69.37
  L 193.21 69.40
  A 2.02 2.01 78.4 0 1 194.76 70.43
  L 197.29 74.95
  A 0.24 0.23 -46.1 0 0 197.70 74.94
  Z"
/>
<rect fill="#f6b011" x="-1.06" y="-5.81" transform="translate(242.07,75.21) rotate(0.2)" width="2.12" height="11.62" rx="0.94"/>
<path fill="#f6b011" d="
  M 128.01 77.73
  L 128.00 70.75
  A 1.10 1.08 -9.3 0 1 128.75 69.72
  L 129.09 69.61
  Q 129.99 69.31 129.99 70.26
  L 130.00 79.78
  A 1.01 1.01 0.0 0 1 129.49 80.66
  Q 128.50 81.22 127.28 80.96
  Q 126.71 80.84 126.42 80.33
  L 122.38 73.34
  Q 121.73 72.22 121.73 73.51
  L 121.73 80.25
  A 0.73 0.73 0.0 0 1 121.00 80.98
  L 120.24 80.99
  A 0.62 0.62 0.0 0 1 119.62 80.37
  L 119.63 71.01
  A 1.75 1.75 0.0 0 1 122.33 69.55
  Q 123.32 70.20 123.86 71.54
  Q 125.25 75.00 127.61 77.87
  Q 128.01 78.36 128.01 77.73
  Z"
/>
<path fill="#f6b011" d="
  M 172.52 78.97
  L 177.36 79.04
  Q 178.17 79.06 178.20 79.86
  L 178.22 80.25
  A 0.49 0.49 0.0 0 1 177.80 80.76
  C 175.04 81.14 170.23 82.08 169.84 78.16
  Q 169.44 74.20 169.67 70.22
  A 0.81 0.81 0.0 0 1 170.55 69.46
  L 170.82 69.48
  Q 171.71 69.56 171.72 70.45
  L 171.82 78.27
  A 0.71 0.71 0.0 0 0 172.52 78.97
  Z"
/>
<path fill="#f6b011" d="
  M 223.00 71.97
  L 222.99 80.57
  A 0.43 0.43 0.0 0 1 222.56 81.00
  L 221.41 81.00
  A 0.43 0.43 0.0 0 1 220.98 80.57
  L 220.97 71.99
  A 0.43 0.43 0.0 0 0 220.53 71.56
  L 217.43 71.60
  A 0.43 0.43 0.0 0 1 217.00 71.18
  L 216.98 69.90
  A 0.43 0.43 0.0 0 1 217.41 69.47
  L 226.56 69.49
  A 0.43 0.43 0.0 0 1 226.99 69.93
  L 226.98 71.14
  A 0.43 0.43 0.0 0 1 226.54 71.57
  L 223.43 71.54
  A 0.43 0.43 0.0 0 0 223.00 71.97
  Z"
/>
<path fill="#f6b011" d="
  M 259.95 78.90
  Q 262.19 79.15 265.00 79.03
  Q 265.94 78.99 266.21 79.89
  Q 266.39 80.48 265.79 80.65
  C 258.07 82.80 255.77 78.97 257.25 71.99
  C 257.95 68.71 262.30 69.44 265.49 69.49
  A 0.52 0.52 0.0 0 1 266.00 70.04
  L 265.95 71.12
  Q 265.93 71.54 265.50 71.54
  L 259.99 71.63
  A 0.86 0.86 0.0 0 0 259.14 72.50
  L 259.19 78.05
  A 0.87 0.86 -87.0 0 0 259.95 78.90
  Z"
/>
<path fill="#f6b011" d="
  M 283.25 71.57
  A 1.13 1.13 0.0 0 0 282.15 72.49
  L 282.06 72.93
  A 0.89 0.89 0.0 0 0 282.93 73.99
  L 287.05 74.02
  A 1.85 1.84 89.0 0 1 288.88 75.80
  L 289.00 78.74
  A 2.21 2.20 89.3 0 1 286.76 81.04
  L 280.81 80.95
  A 0.90 0.89 -10.3 0 1 279.99 80.39
  Q 279.49 79.14 281.01 79.07
  Q 283.61 78.95 285.73 79.02
  A 1.35 1.34 -87.8 0 0 287.11 77.73
  L 287.12 77.43
  Q 287.18 76.12 285.87 76.10
  L 281.51 76.01
  A 0.98 0.96 74.3 0 1 280.71 75.55
  C 279.42 73.52 279.42 69.62 282.81 69.51
  Q 285.65 69.42 288.18 69.52
  Q 288.85 69.55 288.86 70.22
  L 288.87 70.68
  Q 288.88 71.55 288.01 71.55
  L 283.25 71.57
  Z"
/>
</svg>
